<svg width="88" height="88" viewBox="0 0 88 88" fill="none" xmlns="http://www.w3.org/2000/svg">
<g filter="url(#filter0_d_61385_227)">
<path d="M51.8142 29.9876L49.6179 29.6677L48.5124 31.0861C48.511 31.0896 48.5105 31.0933 48.5109 31.0969L48.5135 31.1223V31.1478C48.5135 31.3105 48.4498 31.4791 48.3607 31.5995C48.3171 31.6585 48.2138 31.7796 48.0355 31.8284C47.8861 31.8694 47.7483 31.8442 47.6367 31.7869L46.8304 31.5692L42.9193 36.5816L42.9002 36.6061L42.8782 36.628C42.6386 36.867 42.3521 36.864 42.2058 36.8624C42.195 36.8623 42.1849 36.8622 42.1757 36.8622H42.0643L41.9634 36.8149L40.4845 36.1211L39.7154 36.6143C39.7151 36.6145 39.7148 36.6147 39.7146 36.6148C39.5712 36.7072 39.4042 36.7563 39.2337 36.7563C39.0745 36.7563 38.9183 36.7135 38.7816 36.6326L38.5265 36.5069L38.287 37.6064L38.2844 37.6183L38.2843 37.6182C38.2767 37.6492 38.2787 37.6818 38.2901 37.7116C38.3002 37.7382 38.3173 37.7616 38.3398 37.7795L39.0198 38.1882L39.0255 38.1916L39.0255 38.1916L40.8526 39.3228L41.7213 39.8394C41.7216 39.8396 41.722 39.8398 41.7223 39.84C41.7526 39.8575 41.7879 39.865 41.823 39.8613C41.8585 39.8575 41.8916 39.8424 41.9175 39.8186L41.9245 39.8123L41.9245 39.8123L43.4061 38.5024L43.4451 38.468L43.4903 38.4423C43.7114 38.3167 43.967 38.2658 44.2192 38.2968L44.328 38.3102L44.4211 38.3678L44.7149 38.5495L45.4414 37.9028C45.5621 37.7864 45.7133 37.7064 45.8775 37.672M51.8142 29.9876L45.98 38.1614M51.8142 29.9876L50.6704 31.3416L50.6354 31.383L50.6101 31.4309C50.4895 31.6595 50.5011 31.9178 50.5761 32.1131C50.6452 32.2933 50.8291 32.5484 51.1587 32.5807L51.8142 29.9876ZM45.8775 37.672L45.98 38.1614M45.8775 37.672C45.8775 37.672 45.8775 37.672 45.8775 37.672L45.98 38.1614M45.8775 37.672C46.0476 37.6363 46.2244 37.6512 46.3862 37.7146L46.3999 37.72L46.4133 37.7262L47.5103 38.2328M45.98 38.1614C46.0548 38.1457 46.1326 38.1522 46.2037 38.1801L47.3401 38.7049M47.5103 38.2328C47.5053 38.2323 47.5003 38.2312 47.4955 38.2297L47.4709 38.305L47.4629 38.3155L47.4665 38.3182L47.3401 38.7049M47.5103 38.2328L47.5215 38.2379M47.5103 38.2328L47.5215 38.2379M47.3401 38.7049L47.5052 38.3474M47.3401 38.7049C47.4277 38.7336 47.521 38.7405 47.612 38.7251C47.7029 38.7098 47.7887 38.6726 47.862 38.6167M47.5052 38.3474L47.5544 38.3845L47.862 38.6167M47.5052 38.3474L47.5366 38.2793L47.5497 38.251L47.5303 38.242L47.5215 38.2379M47.5052 38.3474L47.862 38.6167M47.862 38.6167L47.559 38.219C47.5502 38.2257 47.5398 38.2303 47.5287 38.2321C47.5276 38.2323 47.5266 38.2325 47.5255 38.2326L47.5215 38.2379M51.9047 32.6113C51.9051 32.6198 51.9071 32.6322 51.9131 32.6487C51.9207 32.6694 51.9343 32.6927 51.9544 32.7138C51.9641 32.724 51.9753 32.7337 51.9881 32.7423C52.0238 32.7663 52.0514 32.7686 52.054 32.7688C52.0541 32.7688 52.0541 32.7688 52.0541 32.7688C52.0543 32.7688 52.0543 32.7688 52.0541 32.7688H51.9988L51.9448 32.7567L51.8067 32.7258L51.9054 32.5993C51.9054 32.5995 51.9054 32.5997 51.9053 32.5999M51.9047 32.6113L51.9681 32.6527L52.0541 32.7088L52.3192 32.8818L52.0541 32.6748L51.9767 32.6145L51.925 32.5742L51.9057 32.5989C51.9056 32.5992 51.9055 32.5996 51.9053 32.5999M51.9047 32.6113C51.9045 32.6061 51.9049 32.6023 51.9053 32.5999M51.9047 32.6113L51.9005 32.6085C51.9029 32.6048 51.9044 32.6019 51.9053 32.5999M38.4609 36.369L38.4079 36.3574L38.0636 36.2824L38.4743 36.4273L38.4768 36.4221L38.4804 36.4148L38.4609 36.369ZM38.4609 36.369L38.489 36.3751L38.4989 36.3772M38.4609 36.369L38.4804 36.4148L38.4888 36.3978L38.4989 36.3772M38.4989 36.3772L38.6739 36.0221L38.4989 36.3772ZM44.8046 38.6119L44.7611 38.697L44.6886 38.8389L44.579 39.0534L44.7071 38.8464L44.7837 38.7224L44.842 38.6281L44.8197 38.6143C44.82 38.6144 44.8203 38.6145 44.8205 38.6145C44.8201 38.6144 44.8197 38.6142 44.8192 38.614L44.8046 38.6119ZM38.4878 36.432L38.4881 36.4327L38.4884 36.4336L38.4885 36.4336L38.4886 36.4332L38.489 36.4324L38.4878 36.432Z" fill="#E1E1E6" stroke="black"/>
<path d="M40.0283 40.8945L40.0072 40.8379L42.1188 42.2141L42.0428 42.2248C41.9475 42.2224 41.8522 42.2368 41.7614 42.2675C41.6523 42.3043 41.5522 42.3639 41.4677 42.4422L40.4817 43.2728L39.7012 42.6912L40.0149 41.3642L40.0283 41.3074V41.2491V40.9846V40.8945Z" fill="#E1E1E6" stroke="black"/>
<mask id="path-3-inside-1_61385_227" fill="white">
<path d="M38.9306 43.5119C38.9158 43.4911 38.8962 43.4741 38.8735 43.4624C38.8508 43.4507 38.8257 43.4446 38.8001 43.4446C38.7746 43.4446 38.7494 43.4507 38.7267 43.4624C38.704 43.4741 38.6844 43.4911 38.6696 43.5119L37.7942 43.9317C37.7827 43.9317 37.7714 43.934 37.761 43.9385C37.7505 43.943 37.741 43.9495 37.7331 43.9578C37.7252 43.966 37.7191 43.9758 37.7151 43.9865C37.7112 43.9972 37.7094 44.0085 37.71 44.0199L35.7865 48.7221H35.8749L36.2958 48.5499V48.6339L34.8984 50.901C34.8984 50.9892 34.8984 50.9892 34.9826 50.9892L39.8734 46.0225C39.9618 46.0225 39.9618 45.9344 39.9618 45.8462L40.0502 44.5405C40.0502 44.4523 40.0502 44.3684 39.9618 44.3684L38.9306 43.5119Z"/>
</mask>
<path d="M38.9306 43.5119C38.9158 43.4911 38.8962 43.4741 38.8735 43.4624C38.8508 43.4507 38.8257 43.4446 38.8001 43.4446C38.7746 43.4446 38.7494 43.4507 38.7267 43.4624C38.704 43.4741 38.6844 43.4911 38.6696 43.5119L37.7942 43.9317C37.7827 43.9317 37.7714 43.934 37.761 43.9385C37.7505 43.943 37.741 43.9495 37.7331 43.9578C37.7252 43.966 37.7191 43.9758 37.7151 43.9865C37.7112 43.9972 37.7094 44.0085 37.71 44.0199L35.7865 48.7221H35.8749L36.2958 48.5499V48.6339L34.8984 50.901C34.8984 50.9892 34.8984 50.9892 34.9826 50.9892L39.8734 46.0225C39.9618 46.0225 39.9618 45.9344 39.9618 45.8462L40.0502 44.5405C40.0502 44.4523 40.0502 44.3684 39.9618 44.3684L38.9306 43.5119Z" fill="#E1E1E6"/>
<path d="M38.9306 43.5119L38.1155 44.0912L38.1912 44.1977L38.2917 44.2812L38.9306 43.5119ZM38.6696 43.5119L39.102 44.4136L39.335 44.3018L39.4847 44.0912L38.6696 43.5119ZM37.7942 43.9317L37.7929 44.9317L38.021 44.932L38.2266 44.8334L37.7942 43.9317ZM37.71 44.0199L38.6356 44.3985L38.7199 44.1923L38.7087 43.9698L37.71 44.0199ZM35.7865 48.7221L34.861 48.3435L34.297 49.7221H35.7865V48.7221ZM35.8749 48.7221V49.7221H36.0715L36.2534 49.6477L35.8749 48.7221ZM36.2958 48.5499H37.2958V47.0606L35.9172 47.6244L36.2958 48.5499ZM36.2958 48.6339L37.1471 49.1586L37.2958 48.9173V48.6339H36.2958ZM34.8984 50.901L34.0471 50.3763L33.8984 50.6176V50.901H34.8984ZM34.9826 50.9892V51.9892H35.4013L35.6951 51.6908L34.9826 50.9892ZM39.8734 46.0225V45.0225H39.4546L39.1608 45.3209L39.8734 46.0225ZM39.9618 45.8462L38.9641 45.7787L38.9618 45.8124V45.8462H39.9618ZM40.0502 44.5405L41.0479 44.608L41.0502 44.5743V44.5405H40.0502ZM39.9618 44.3684L39.3228 45.1376L39.6007 45.3684H39.9618V44.3684ZM39.7457 42.9326C39.6382 42.7814 39.4962 42.6584 39.3318 42.5736L38.4153 44.3513C38.2963 44.2899 38.1934 44.2008 38.1155 44.0912L39.7457 42.9326ZM39.3318 42.5736C39.1674 42.4889 38.9851 42.4446 38.8001 42.4446V44.4446C38.6662 44.4446 38.5343 44.4126 38.4153 44.3513L39.3318 42.5736ZM38.8001 42.4446C38.6151 42.4446 38.4328 42.4889 38.2684 42.5736L39.1849 44.3513C39.066 44.4126 38.934 44.4446 38.8001 44.4446V42.4446ZM38.2684 42.5736C38.104 42.6584 37.962 42.7814 37.8545 42.9326L39.4847 44.0912C39.4068 44.2008 39.3039 44.2899 39.1849 44.3513L38.2684 42.5736ZM38.2372 42.6102L37.3618 43.0301L38.2266 44.8334L39.102 44.4136L38.2372 42.6102ZM37.7954 42.9317C37.6489 42.9316 37.5036 42.9611 37.3684 43.0188L38.1535 44.8582C38.0393 44.907 37.9166 44.9319 37.7929 44.9317L37.7954 42.9317ZM37.3684 43.0188C37.2328 43.0766 37.1109 43.1613 37.0098 43.2672L38.4564 44.6484C38.371 44.7378 38.2681 44.8093 38.1535 44.8582L37.3684 43.0188ZM37.0098 43.2672C36.9087 43.3731 36.8296 43.499 36.778 43.6377L38.6523 44.3353C38.6087 44.4526 38.5417 44.559 38.4564 44.6484L37.0098 43.2672ZM36.778 43.6377C36.7264 43.7761 36.7039 43.9232 36.7113 44.07L38.7087 43.9698C38.715 44.0938 38.6959 44.2182 38.6523 44.3353L36.778 43.6377ZM36.7844 43.6413L34.861 48.3435L36.7121 49.1007L38.6356 44.3985L36.7844 43.6413ZM35.7865 49.7221H35.8749V47.7221H35.7865V49.7221ZM36.2534 49.6477L36.6743 49.4755L35.9172 47.6244L35.4964 47.7965L36.2534 49.6477ZM35.2958 48.5499V48.6339H37.2958V48.5499H35.2958ZM35.4445 48.1092L34.0471 50.3763L35.7497 51.4257L37.1471 49.1586L35.4445 48.1092ZM33.8984 50.901C33.8984 50.9091 33.8984 50.9294 33.8988 50.9496C33.8992 50.9689 33.9002 51.0092 33.9053 51.0574C33.9124 51.1238 33.9431 51.4146 34.1856 51.6687C34.4373 51.9323 34.7379 51.9718 34.8184 51.9811C34.8703 51.9872 34.9135 51.9884 34.9335 51.9888C34.9544 51.9892 34.9753 51.9892 34.9826 51.9892V49.9892C34.936 49.9892 34.9898 49.9876 35.0495 49.9945C35.1064 50.0011 35.3911 50.0351 35.6323 50.2877C35.8643 50.5307 35.8898 50.805 35.8942 50.8466C35.8998 50.8995 35.8984 50.9464 35.8984 50.901H33.8984ZM35.6951 51.6908L40.5859 46.7242L39.1608 45.3209L34.2701 50.2876L35.6951 51.6908ZM39.8734 47.0225C40.0678 47.0225 40.3141 46.9707 40.5374 46.7975C40.7523 46.6308 40.8526 46.4237 40.8991 46.2844C40.9437 46.1512 40.9543 46.0352 40.9582 45.9777C40.9622 45.9176 40.9618 45.8611 40.9618 45.8462H38.9618C38.9618 45.8753 38.9614 45.8629 38.9626 45.8442C38.9637 45.828 38.9688 45.7506 39.0023 45.6504C39.0378 45.5442 39.1215 45.3647 39.3115 45.2172C39.51 45.0633 39.7231 45.0225 39.8734 45.0225V47.0225ZM40.9595 45.9137L41.0479 44.608L39.0524 44.473L38.9641 45.7787L40.9595 45.9137ZM41.0502 44.5405C41.0502 44.526 41.0506 44.4689 41.0465 44.4084C41.0425 44.3505 41.0315 44.2316 40.9844 44.0952C40.9344 43.9503 40.8288 43.7435 40.6099 43.5806C40.3866 43.4144 40.1457 43.3684 39.9618 43.3684V45.3684C39.822 45.3684 39.6143 45.3328 39.4159 45.1851C39.2218 45.0407 39.1327 44.8604 39.0938 44.7476C39.0578 44.6431 39.0523 44.5618 39.0511 44.5444C39.0497 44.5244 39.0502 44.5109 39.0502 44.5405H41.0502ZM40.6007 43.5991L39.5695 42.7426L38.2917 44.2812L39.3228 45.1376L40.6007 43.5991Z" fill="black" mask="url(#path-3-inside-1_61385_227)"/>
<path d="M35.3091 74.7459L35.3703 74.8311L34.7325 75.2612L34.7265 75.2652L34.7206 75.2694C34.5553 75.3879 34.3829 75.4962 34.2043 75.5937L34.2043 75.5936L34.197 75.5977C34.0722 75.6686 33.9426 75.7307 33.8093 75.7838L35.3091 74.7459ZM33.9218 78.6209L34.2882 79.292L34.2075 79.3329L33.3607 77.7519C33.4079 77.8053 33.4528 77.8608 33.4954 77.918L33.4954 77.918L33.4989 77.9226C33.5641 78.0082 33.6286 78.1039 33.6967 78.2129L33.9208 78.6192L33.9218 78.6209ZM33.749 76.8229L32.7313 76.5768L32.713 76.5425L32.7376 76.5255L33.7709 76.7748L36.904 77.5306L36.8914 77.5829L33.749 76.8229Z" fill="#FFCD1E" stroke="white"/>
<path d="M19.4221 66.2094C19.1959 66.1708 18.9756 66.199 18.778 66.294C18.9163 66.2118 19.0643 66.1709 19.2148 66.1678C19.3953 66.164 19.6067 66.2143 19.8338 66.3492C19.7021 66.2829 19.5645 66.2337 19.4221 66.2094ZM17.0621 68.9909C17.0114 68.8179 17.0201 68.6528 17.1319 68.4741C17.1004 68.5458 17.0782 68.6226 17.0671 68.7041C17.0477 68.8475 17.0658 68.9836 17.1043 69.1064C17.087 69.0666 17.073 69.0281 17.0621 68.9909ZM18.7951 66.9012C18.4963 67.2454 18.6562 67.6653 19.1276 68.0767L18.7951 66.9012Z" fill="#E1E1E6" stroke="white"/>
<path d="M15.0662 61.0139C14.9908 60.9729 14.9123 60.9381 14.8316 60.9099C14.9111 60.9362 14.9895 60.9706 15.0662 61.0139ZM15.8531 62.0429C15.8428 61.9994 15.8307 61.9565 15.8168 61.9142C15.8844 62.1003 15.9078 62.2835 15.8948 62.4603C15.8995 62.3203 15.8855 62.1799 15.8531 62.0429Z" fill="#E1E1E6" stroke="white"/>
<mask id="path-8-inside-2_61385_227" fill="white">
<path d="M12.949 56.7536L8.43704 59.1257L7.98669 58.286L12.5071 55.9013L12.949 56.7536Z"/>
</mask>
<path d="M12.949 56.7536L8.43704 59.1257L7.98669 58.286L12.5071 55.9013L12.949 56.7536Z" fill="#E1E1E6"/>
<path d="M12.949 56.7536L13.4143 57.6387L14.2945 57.176L13.8368 56.2933L12.949 56.7536ZM8.43704 59.1257L7.55579 59.5983L8.02454 60.4723L8.90238 60.0108L8.43704 59.1257ZM7.98669 58.286L7.5201 57.4015L6.62955 57.8713L7.10544 58.7586L7.98669 58.286ZM12.5071 55.9013L13.3948 55.441L12.9312 54.5469L12.0405 55.0168L12.5071 55.9013ZM12.4837 55.8685L7.9717 58.2405L8.90238 60.0108L13.4143 57.6387L12.4837 55.8685ZM9.31829 58.653L8.86795 57.8134L7.10544 58.7586L7.55579 59.5983L9.31829 58.653ZM8.45329 59.1705L12.9737 56.7858L12.0405 55.0168L7.5201 57.4015L8.45329 59.1705ZM11.6193 56.3617L12.0613 57.2139L13.8368 56.2933L13.3948 55.441L11.6193 56.3617Z" fill="white" mask="url(#path-8-inside-2_61385_227)"/>
<mask id="path-10-inside-3_61385_227" fill="white">
<path d="M9.17336 50.2587L10.0909 49.9438L11.0758 52.7861L6.24816 54.4655L5.9325 53.5545L9.83838 52.211L9.17336 50.2587Z"/>
</mask>
<path d="M9.17336 50.2587L10.0909 49.9438L11.0758 52.7861L6.24816 54.4655L5.9325 53.5545L9.83838 52.211L9.17336 50.2587Z" fill="#E1E1E6"/>
<path d="M9.17336 50.2587L8.84877 49.3129L7.90505 49.6367L8.22677 50.5812L9.17336 50.2587ZM10.0909 49.9438L11.0358 49.6164L10.7094 48.6744L9.76632 48.998L10.0909 49.9438ZM11.0758 52.7861L11.4044 53.7306L12.3477 53.4025L12.0207 52.4587L11.0758 52.7861ZM6.24816 54.4655L5.30328 54.7929L5.63107 55.7389L6.57671 55.41L6.24816 54.4655ZM5.9325 53.5545L5.60724 52.6088L4.65947 52.9348L4.98761 53.8818L5.9325 53.5545ZM9.83838 52.211L10.1636 53.1566L11.1065 52.8323L10.785 51.8885L9.83838 52.211ZM9.49795 51.2046L10.4155 50.8897L9.76632 48.998L8.84877 49.3129L9.49795 51.2046ZM9.14603 50.2713L10.1309 53.1136L12.0207 52.4587L11.0358 49.6164L9.14603 50.2713ZM10.7473 51.8417L5.91961 53.521L6.57671 55.41L11.4044 53.7306L10.7473 51.8417ZM7.19305 54.1381L6.87738 53.2271L4.98761 53.8818L5.30328 54.7929L7.19305 54.1381ZM6.25775 54.5001L10.1636 53.1566L9.51312 51.2653L5.60724 52.6088L6.25775 54.5001ZM10.785 51.8885L10.1199 49.9363L8.22677 50.5812L8.89179 52.5334L10.785 51.8885Z" fill="white" mask="url(#path-10-inside-3_61385_227)"/>
<mask id="path-12-inside-4_61385_227" fill="white">
<path d="M6.19362 42.9537C7.59098 42.7606 8.84945 43.5625 9.08094 45.2376L9.31244 46.917L4.26173 47.6097L4.03444 45.9303C3.79874 44.209 4.80047 43.1426 6.19362 42.9537ZM6.3241 43.9067C6.11939 43.9251 5.92061 43.985 5.73997 44.0827C5.55934 44.1805 5.40066 44.3142 5.27371 44.4754C5.14677 44.6366 5.05424 44.8221 5.00181 45.0203C4.94937 45.2185 4.93815 45.4253 4.96882 45.6281L5.08667 46.5097L8.21811 46.0899L8.09605 45.2124C8.07113 45.009 8.005 44.8128 7.9017 44.6357C7.79839 44.4586 7.66006 44.3043 7.49511 44.1822C7.33017 44.0601 7.14204 43.9727 6.94218 43.9253C6.74232 43.878 6.53489 43.8716 6.33251 43.9067H6.3241Z"/>
</mask>
<path d="M6.19362 42.9537C7.59098 42.7606 8.84945 43.5625 9.08094 45.2376L9.31244 46.917L4.26173 47.6097L4.03444 45.9303C3.79874 44.209 4.80047 43.1426 6.19362 42.9537ZM6.3241 43.9067C6.11939 43.9251 5.92061 43.985 5.73997 44.0827C5.55934 44.1805 5.40066 44.3142 5.27371 44.4754C5.14677 44.6366 5.05424 44.8221 5.00181 45.0203C4.94937 45.2185 4.93815 45.4253 4.96882 45.6281L5.08667 46.5097L8.21811 46.0899L8.09605 45.2124C8.07113 45.009 8.005 44.8128 7.9017 44.6357C7.79839 44.4586 7.66006 44.3043 7.49511 44.1822C7.33017 44.0601 7.14204 43.9727 6.94218 43.9253C6.74232 43.878 6.53489 43.8716 6.33251 43.9067H6.3241Z" fill="#E1E1E6"/>
<path d="M6.19362 42.9537L6.328 43.9446L6.33053 43.9443L6.19362 42.9537ZM9.08094 45.2376L10.0716 45.1011L10.0715 45.1007L9.08094 45.2376ZM9.31244 46.917L9.44832 47.9077L10.4397 47.7717L10.3031 46.7804L9.31244 46.917ZM4.26173 47.6097L3.27076 47.7438L3.40512 48.7365L4.39761 48.6004L4.26173 47.6097ZM4.03444 45.9303L5.02541 45.7962L5.0252 45.7947L4.03444 45.9303ZM6.3241 43.9067V42.9067H6.27944L6.23496 42.9107L6.3241 43.9067ZM4.96882 45.6281L5.96001 45.4956L5.95886 45.487L5.95757 45.4784L4.96882 45.6281ZM5.08667 46.5097L4.09549 46.6422L4.22803 47.6338L5.21955 47.5009L5.08667 46.5097ZM8.21811 46.0899L8.351 47.081L9.34704 46.9475L9.20858 45.9521L8.21811 46.0899ZM8.09605 45.2124L7.10348 45.3341L7.10447 45.3421L7.10559 45.3502L8.09605 45.2124ZM6.33251 43.9067V44.9067H6.41857L6.50337 44.892L6.33251 43.9067ZM6.33053 43.9443C6.80172 43.8792 7.19452 43.9867 7.4774 44.1972C7.75405 44.4032 8.00651 44.7678 8.09035 45.3745L10.0715 45.1007C9.92387 44.0323 9.43135 43.1584 8.67156 42.5929C7.918 42.032 6.98288 41.8351 6.05672 41.9631L6.33053 43.9443ZM8.09031 45.3742L8.3218 47.0535L10.3031 46.7804L10.0716 45.1011L8.09031 45.3742ZM9.17655 45.9262L4.12584 46.619L4.39761 48.6004L9.44832 47.9077L9.17655 45.9262ZM5.25269 47.4756L5.02541 45.7962L3.04348 46.0645L3.27076 47.7438L5.25269 47.4756ZM5.0252 45.7947C4.93812 45.1588 5.08719 44.744 5.29102 44.4833C5.50091 44.2148 5.84726 44.0098 6.328 43.9446L6.05924 41.9628C5.14683 42.0865 4.29574 42.5092 3.7154 43.2515C3.12901 44.0015 2.89506 44.9806 3.04369 46.066L5.0252 45.7947ZM6.23496 42.9107C5.89476 42.9412 5.56429 43.0407 5.26388 43.2034L6.21607 44.9621C6.27693 44.9292 6.34402 44.9089 6.41323 44.9028L6.23496 42.9107ZM5.26388 43.2034C4.96348 43.366 4.6994 43.5883 4.48802 43.8568L6.05941 45.094C6.10192 45.04 6.15519 44.9951 6.21607 44.9621L5.26388 43.2034ZM4.48802 43.8568C4.27663 44.1253 4.12245 44.4342 4.03506 44.7646L5.96856 45.276C5.98604 45.2099 6.01691 45.148 6.05941 45.094L4.48802 43.8568ZM4.03506 44.7646C3.94766 45.095 3.92894 45.4398 3.98008 45.7777L5.95757 45.4784C5.94735 45.4109 5.95108 45.3421 5.96856 45.276L4.03506 44.7646ZM3.97764 45.7606L4.09549 46.6422L6.07786 46.3772L5.96001 45.4956L3.97764 45.7606ZM5.21955 47.5009L8.351 47.081L8.08523 45.0988L4.95379 45.5186L5.21955 47.5009ZM9.20858 45.9521L9.08651 45.0746L7.10559 45.3502L7.22765 46.2277L9.20858 45.9521ZM9.08863 45.0908C9.04717 44.7525 8.9372 44.4263 8.76549 44.1319L7.03791 45.1396C7.07281 45.1994 7.09508 45.2656 7.10348 45.3341L9.08863 45.0908ZM8.76549 44.1319C8.59379 43.8375 8.36399 43.5812 8.09016 43.3785L6.90007 44.9859C6.95614 45.0274 7.00299 45.0797 7.03791 45.1396L8.76549 44.1319ZM8.09016 43.3785C7.81633 43.1757 7.50418 43.0308 7.17272 42.9522L6.71164 44.8984C6.7799 44.9145 6.844 44.9444 6.90007 44.9859L8.09016 43.3785ZM7.17272 42.9522C6.84124 42.8737 6.49726 42.8632 6.16165 42.9214L6.50337 44.892C6.57253 44.88 6.6434 44.8822 6.71164 44.8984L7.17272 42.9522ZM6.33251 42.9067H6.3241V44.9067H6.33251V42.9067Z" fill="white" mask="url(#path-12-inside-4_61385_227)"/>
<mask id="path-14-inside-5_61385_227" fill="white">
<path d="M4.73726 30.4046L5.69268 30.5935L5.43173 31.895L9.48493 32.7011L9.29552 33.6457L5.24232 32.8397L4.98137 34.137L4.03015 33.948L4.73726 30.4046Z"/>
</mask>
<path d="M4.73726 30.4046L5.69268 30.5935L5.43173 31.895L9.48493 32.7011L9.29552 33.6457L5.24232 32.8397L4.98137 34.137L4.03015 33.948L4.73726 30.4046Z" fill="#E1E1E6"/>
<path d="M4.73726 30.4046L4.93124 29.4236L3.95195 29.23L3.7566 30.2089L4.73726 30.4046ZM5.69268 30.5935L6.67317 30.7901L6.87028 29.807L5.88667 29.6125L5.69268 30.5935ZM5.43173 31.895L4.45124 31.6984L4.25435 32.6805L5.23667 32.8758L5.43173 31.895ZM9.48493 32.7011L10.4654 32.8977L10.6623 31.9157L9.67998 31.7203L9.48493 32.7011ZM9.29552 33.6457L9.10046 34.6265L10.0797 34.8213L10.276 33.8423L9.29552 33.6457ZM5.24232 32.8397L5.43738 31.8589L4.45873 31.6642L4.26196 32.6425L5.24232 32.8397ZM4.98137 34.137L4.78656 35.1178L5.76502 35.3121L5.96174 34.3342L4.98137 34.137ZM4.03015 33.948L3.04949 33.7523L2.85361 34.7339L3.83534 34.9289L4.03015 33.948ZM4.54328 31.3856L5.4987 31.5745L5.88667 29.6125L4.93124 29.4236L4.54328 31.3856ZM4.7122 30.3969L4.45124 31.6984L6.41222 32.0916L6.67317 30.7901L4.7122 30.3969ZM5.23667 32.8758L9.28987 33.6819L9.67998 31.7203L5.62679 30.9142L5.23667 32.8758ZM8.50444 32.5045L8.31504 33.4492L10.276 33.8423L10.4654 32.8977L8.50444 32.5045ZM9.49058 32.665L5.43738 31.8589L5.04727 33.8205L9.10046 34.6265L9.49058 32.665ZM4.26196 32.6425L4.00101 33.9398L5.96174 34.3342L6.22269 33.0369L4.26196 32.6425ZM5.17618 33.1561L4.22496 32.9672L3.83534 34.9289L4.78656 35.1178L5.17618 33.1561ZM5.01082 34.1437L5.71792 30.6003L3.7566 30.2089L3.04949 33.7523L5.01082 34.1437Z" fill="white" mask="url(#path-14-inside-5_61385_227)"/>
<mask id="path-16-inside-6_61385_227" fill="white">
<path d="M7.52347 22.684L12.229 24.653L11.8545 25.5431L9.94781 24.7454L9.10603 26.7438L11.0127 27.5415L10.6381 28.4274L5.9325 26.4583L6.30708 25.5683L8.20952 26.366L9.05131 24.3675L7.14887 23.5698L7.52347 22.684Z"/>
</mask>
<path d="M7.52347 22.684L12.229 24.653L11.8545 25.5431L9.94781 24.7454L9.10603 26.7438L11.0127 27.5415L10.6381 28.4274L5.9325 26.4583L6.30708 25.5683L8.20952 26.366L9.05131 24.3675L7.14887 23.5698L7.52347 22.684Z" fill="#E1E1E6"/>
<path d="M7.52347 22.684L7.90948 21.7615L6.99045 21.3769L6.60243 22.2945L7.52347 22.684ZM12.229 24.653L13.1507 25.0409L13.5394 24.1173L12.6151 23.7305L12.229 24.653ZM11.8545 25.5431L11.4685 26.4656L12.3891 26.8507L12.7762 25.931L11.8545 25.5431ZM9.94781 24.7454L10.3338 23.8229L9.41349 23.4378L9.02623 24.3572L9.94781 24.7454ZM9.10603 26.7438L8.18445 26.3556L7.79532 27.2794L8.72007 27.6663L9.10603 26.7438ZM11.0127 27.5415L11.9337 27.931L12.3247 27.0064L11.3986 26.619L11.0127 27.5415ZM10.6381 28.4274L10.2521 29.3499L11.1711 29.7344L11.5591 28.8168L10.6381 28.4274ZM5.9325 26.4583L5.0108 26.0704L4.62209 26.994L5.54648 27.3808L5.9325 26.4583ZM6.30708 25.5683L6.69376 24.6461L5.77277 24.2599L5.38538 25.1804L6.30708 25.5683ZM8.20952 26.366L7.82284 27.2882L8.74355 27.6742L9.1311 26.7542L8.20952 26.366ZM9.05131 24.3675L9.97289 24.7557L10.3617 23.8326L9.43799 23.4453L9.05131 24.3675ZM7.14887 23.5698L6.22783 23.1804L5.83717 24.1042L6.76218 24.4921L7.14887 23.5698ZM7.13745 23.6065L11.843 25.5755L12.6151 23.7305L7.90948 21.7615L7.13745 23.6065ZM11.3073 24.2651L10.9328 25.1552L12.7762 25.931L13.1507 25.0409L11.3073 24.2651ZM12.2404 24.6206L10.3338 23.8229L9.56185 25.6679L11.4685 26.4656L12.2404 24.6206ZM9.02623 24.3572L8.18445 26.3556L10.0276 27.132L10.8694 25.1336L9.02623 24.3572ZM8.72007 27.6663L10.6267 28.464L11.3986 26.619L9.49199 25.8213L8.72007 27.6663ZM10.0916 27.152L9.71703 28.0379L11.5591 28.8168L11.9337 27.931L10.0916 27.152ZM11.0241 27.5049L6.31851 25.5358L5.54648 27.3808L10.2521 29.3499L11.0241 27.5049ZM6.85419 26.8462L7.22878 25.9562L5.38538 25.1804L5.0108 26.0704L6.85419 26.8462ZM5.9204 26.4905L7.82284 27.2882L8.59621 25.4437L6.69376 24.6461L5.9204 26.4905ZM9.1311 26.7542L9.97289 24.7557L8.12973 23.9793L7.28795 25.9778L9.1311 26.7542ZM9.43799 23.4453L7.53555 22.6476L6.76218 24.4921L8.66463 25.2898L9.43799 23.4453ZM8.0699 23.9593L8.4445 23.0735L6.60243 22.2945L6.22783 23.1804L8.0699 23.9593Z" fill="white" mask="url(#path-16-inside-6_61385_227)"/>
<mask id="path-18-inside-7_61385_227" fill="white">
<path d="M11.0001 18.6492L11.905 19.2622L12.9194 17.7675L13.7233 18.3091L12.709 19.8037L13.6139 20.4167L14.8345 18.624L15.6384 19.1656L13.8748 21.756L9.66589 18.9011L11.4252 16.3107L12.2291 16.8565L11.0001 18.6492Z"/>
</mask>
<path d="M11.0001 18.6492L11.905 19.2622L12.9194 17.7675L13.7233 18.3091L12.709 19.8037L13.6139 20.4167L14.8345 18.624L15.6384 19.1656L13.8748 21.756L9.66589 18.9011L11.4252 16.3107L12.2291 16.8565L11.0001 18.6492Z" fill="#E1E1E6"/>
<path d="M11.0001 18.6492L10.1753 18.0838L9.60673 18.9132L10.4393 19.4771L11.0001 18.6492ZM11.905 19.2622L11.3442 20.0901L12.1714 20.6504L12.7325 19.8237L11.905 19.2622ZM12.9194 17.7675L13.4781 16.9382L12.6516 16.3814L12.092 17.206L12.9194 17.7675ZM13.7233 18.3091L14.5507 18.8707L15.1142 18.0404L14.282 17.4798L13.7233 18.3091ZM12.709 19.8037L11.8815 19.2422L11.3195 20.0704L12.1481 20.6317L12.709 19.8037ZM13.6139 20.4167L13.053 21.2446L13.879 21.8041L14.4405 20.9795L13.6139 20.4167ZM14.8345 18.624L15.3932 17.7947L14.5679 17.2387L14.0079 18.0612L14.8345 18.624ZM15.6384 19.1656L16.465 19.7284L17.0305 18.8977L16.1971 18.3362L15.6384 19.1656ZM13.8748 21.756L13.3135 22.5836L14.1396 23.144L14.7014 22.3188L13.8748 21.756ZM9.66589 18.9011L8.83865 18.3393L8.27647 19.167L9.10455 19.7287L9.66589 18.9011ZM11.4252 16.3107L11.9869 15.4834L11.1597 14.9218L10.598 15.7489L11.4252 16.3107ZM12.2291 16.8565L13.0539 17.4219L13.6219 16.5934L12.7908 16.0291L12.2291 16.8565ZM10.4393 19.4771L11.3442 20.0901L12.4659 18.4342L11.5609 17.8213L10.4393 19.4771ZM12.7325 19.8237L13.7468 18.3291L12.092 17.206L11.0776 18.7006L12.7325 19.8237ZM12.3607 18.5969L13.1646 19.1385L14.282 17.4798L13.4781 16.9382L12.3607 18.5969ZM12.8959 17.7476L11.8815 19.2422L13.5364 20.3653L14.5507 18.8707L12.8959 17.7476ZM12.1481 20.6317L13.053 21.2446L14.1747 19.5888L13.2698 18.9758L12.1481 20.6317ZM14.4405 20.9795L15.661 19.1868L14.0079 18.0612L12.7873 19.8539L14.4405 20.9795ZM14.2757 19.4534L15.0796 19.9949L16.1971 18.3362L15.3932 17.7947L14.2757 19.4534ZM14.8117 18.6028L13.0482 21.1932L14.7014 22.3188L16.465 19.7284L14.8117 18.6028ZM14.4362 20.9284L10.2272 18.0735L9.10455 19.7287L13.3135 22.5836L14.4362 20.9284ZM10.4931 19.4629L12.2525 16.8725L10.598 15.7489L8.83865 18.3393L10.4931 19.4629ZM10.8635 17.138L11.6674 17.6838L12.7908 16.0291L11.9869 15.4834L10.8635 17.138ZM11.4043 16.291L10.1753 18.0838L11.8249 19.2146L13.0539 17.4219L11.4043 16.291Z" fill="white" mask="url(#path-18-inside-7_61385_227)"/>
<mask id="path-20-inside-8_61385_227" fill="white">
<path d="M21.1733 13.3046L18.0503 9.27841L20.5336 7.36395L21.127 8.12806L19.4098 9.45474L20.0832 10.3196L21.5142 9.21123L22.1119 9.97954L20.6724 11.0921L21.9351 12.7211L21.1733 13.3046Z"/>
</mask>
<path d="M21.1733 13.3046L18.0503 9.27841L20.5336 7.36395L21.127 8.12806L19.4098 9.45474L20.0832 10.3196L21.5142 9.21123L22.1119 9.97954L20.6724 11.0921L21.9351 12.7211L21.1733 13.3046Z" fill="#E1E1E6"/>
<path d="M21.1733 13.3046L20.3831 13.9175L20.9924 14.7029L21.7814 14.0985L21.1733 13.3046ZM18.0503 9.27841L17.4397 8.48644L16.6454 9.09881L17.2601 9.89131L18.0503 9.27841ZM20.5336 7.36395L21.3233 6.75056L20.7121 5.96361L19.923 6.57198L20.5336 7.36395ZM21.127 8.12806L21.7384 8.9194L22.5318 8.30646L21.9168 7.51466L21.127 8.12806ZM19.4098 9.45474L18.7984 8.66339L18.004 9.27709L18.6207 10.0691L19.4098 9.45474ZM20.0832 10.3196L19.2942 10.934L19.907 11.721L20.6955 11.1102L20.0832 10.3196ZM21.5142 9.21123L22.3035 8.59723L21.6908 7.80959L20.9019 8.42064L21.5142 9.21123ZM22.1119 9.97954L22.7234 10.7708L23.5171 10.1573L22.9012 9.36553L22.1119 9.97954ZM20.6724 11.0921L20.0609 10.3009L19.2686 10.9133L19.8821 11.7047L20.6724 11.0921ZM21.9351 12.7211L22.5432 13.5149L23.3416 12.9033L22.7255 12.1084L21.9351 12.7211ZM21.9635 12.6917L18.8405 8.66551L17.2601 9.89131L20.3831 13.9175L21.9635 12.6917ZM18.6609 10.0704L21.1441 8.15592L19.923 6.57198L17.4397 8.48644L18.6609 10.0704ZM19.7438 7.97735L20.3372 8.74145L21.9168 7.51466L21.3233 6.75056L19.7438 7.97735ZM20.5156 7.33671L18.7984 8.66339L20.0211 10.2461L21.7384 8.9194L20.5156 7.33671ZM18.6207 10.0691L19.2942 10.934L20.8722 9.70524L20.1988 8.84037L18.6207 10.0691ZM20.6955 11.1102L22.1266 10.0018L20.9019 8.42064L19.4709 9.52901L20.6955 11.1102ZM20.7249 9.82524L21.3226 10.5935L22.9012 9.36553L22.3035 8.59723L20.7249 9.82524ZM21.5004 9.18832L20.0609 10.3009L21.284 11.8833L22.7234 10.7708L21.5004 9.18832ZM19.8821 11.7047L21.1448 13.3337L22.7255 12.1084L21.4628 10.4795L19.8821 11.7047ZM21.327 11.9272L20.5652 12.5108L21.7814 14.0985L22.5432 13.5149L21.327 11.9272Z" fill="white" mask="url(#path-20-inside-8_61385_227)"/>
<path d="M27.8289 8.42045L27.6023 7.97475L27.8289 8.42045C28.0153 8.32568 28.1813 8.19518 28.3173 8.03632L27.9374 7.71118L28.3173 8.03632C28.4532 7.87746 28.5566 7.69338 28.6213 7.49456C28.6627 7.36747 28.6877 7.23596 28.6962 7.10317C28.7056 7.26803 28.6915 7.42241 28.6565 7.56361C28.565 7.93211 28.319 8.26416 27.8592 8.49601C27.4005 8.72727 26.9861 8.72691 26.6337 8.57939C26.5032 8.52475 26.3745 8.44696 26.251 8.34559C26.364 8.41729 26.4859 8.47462 26.6138 8.51605C26.8127 8.58049 27.0224 8.60521 27.2309 8.58881C27.4393 8.57242 27.6425 8.51522 27.8289 8.42045Z" fill="#E1E1E6" stroke="white"/>
<mask id="path-23-inside-9_61385_227" fill="white">
<path d="M34.8144 0.990875L35.0711 1.92291L33.8084 2.27558L34.9069 6.25144L33.9726 6.50334L32.8782 2.53168L31.6156 2.88434L31.3546 1.94811L34.8144 0.990875Z"/>
</mask>
<path d="M34.8144 0.990875L35.0711 1.92291L33.8084 2.27558L34.9069 6.25144L33.9726 6.50334L32.8782 2.53168L31.6156 2.88434L31.3546 1.94811L34.8144 0.990875Z" fill="#E1E1E6"/>
<path d="M34.8144 0.990875L35.7784 0.725308L35.5126 -0.239877L34.5477 0.0270843L34.8144 0.990875ZM35.0711 1.92291L35.3401 2.88605L36.2998 2.61801L36.0352 1.65735L35.0711 1.92291ZM33.8084 2.27558L33.5394 1.31244L32.5789 1.58069L32.8445 2.5419L33.8084 2.27558ZM34.9069 6.25144L35.1672 7.21697L36.1388 6.95504L35.8708 5.98512L34.9069 6.25144ZM33.9726 6.50334L33.0085 6.76898L33.2727 7.72773L34.2329 7.46887L33.9726 6.50334ZM32.8782 2.53168L33.8423 2.26605L33.5758 1.2986L32.6092 1.56854L32.8782 2.53168ZM31.6156 2.88434L30.6523 3.15283L30.9209 4.11663L31.8846 3.84748L31.6156 2.88434ZM31.3546 1.94811L31.088 0.984315L30.1223 1.25148L30.3913 2.2166L31.3546 1.94811ZM33.8503 1.25644L34.107 2.18848L36.0352 1.65735L35.7784 0.725308L33.8503 1.25644ZM34.8021 0.959776L33.5394 1.31244L34.0774 3.23872L35.3401 2.88605L34.8021 0.959776ZM32.8445 2.5419L33.9431 6.51776L35.8708 5.98512L34.7723 2.00926L32.8445 2.5419ZM34.6466 5.28591L33.7123 5.53781L34.2329 7.46887L35.1672 7.21697L34.6466 5.28591ZM34.9366 6.23771L33.8423 2.26605L31.9142 2.79731L33.0085 6.76898L34.9366 6.23771ZM32.6092 1.56854L31.3466 1.9212L31.8846 3.84748L33.1472 3.49482L32.6092 1.56854ZM32.5788 2.61585L32.3179 1.67962L30.3913 2.2166L30.6523 3.15283L32.5788 2.61585ZM31.6213 2.9119L35.081 1.95467L34.5477 0.0270843L31.088 0.984315L31.6213 2.9119Z" fill="white" mask="url(#path-23-inside-9_61385_227)"/>
<mask id="path-25-inside-10_61385_227" fill="white">
<path d="M42.8619 0L43.0724 2.90108C43.1692 4.23616 42.4831 5.24797 41.191 5.34033C39.8989 5.4327 39.0865 4.53005 38.9813 3.19076L38.7709 0.293885L39.7347 0.222513L39.9494 3.24534C39.9421 3.39945 39.9676 3.55335 40.0243 3.69689C40.081 3.84044 40.1675 3.97037 40.2782 4.07811C40.3889 4.18586 40.5213 4.26897 40.6665 4.32198C40.8118 4.37498 40.9666 4.39667 41.1209 4.38562C41.2752 4.37456 41.4253 4.33101 41.5615 4.25784C41.6977 4.18467 41.8167 4.08353 41.9108 3.96111C42.005 3.83869 42.072 3.69775 42.1075 3.5476C42.1431 3.39745 42.1463 3.24149 42.117 3.09L41.8981 0.0671739L42.8619 0Z"/>
</mask>
<path d="M42.8619 0L43.0724 2.90108C43.1692 4.23616 42.4831 5.24797 41.191 5.34033C39.8989 5.4327 39.0865 4.53005 38.9813 3.19076L38.7709 0.293885L39.7347 0.222513L39.9494 3.24534C39.9421 3.39945 39.9676 3.55335 40.0243 3.69689C40.081 3.84044 40.1675 3.97037 40.2782 4.07811C40.3889 4.18586 40.5213 4.26897 40.6665 4.32198C40.8118 4.37498 40.9666 4.39667 41.1209 4.38562C41.2752 4.37456 41.4253 4.33101 41.5615 4.25784C41.6977 4.18467 41.8167 4.08353 41.9108 3.96111C42.005 3.83869 42.072 3.69775 42.1075 3.5476C42.1431 3.39745 42.1463 3.24149 42.117 3.09L41.8981 0.0671739L42.8619 0Z" fill="#E1E1E6"/>
<path d="M42.8619 0L43.8593 -0.0723507L43.7872 -1.06691L42.7924 -0.99758L42.8619 0ZM43.0724 2.90108L44.0698 2.82876L44.0698 2.82872L43.0724 2.90108ZM38.9813 3.19076L37.9839 3.26322L37.9844 3.26909L38.9813 3.19076ZM38.7709 0.293885L38.697 -0.703385L37.7011 -0.629641L37.7735 0.36634L38.7709 0.293885ZM39.7347 0.222513L40.7322 0.151679L40.6612 -0.848826L39.6609 -0.774756L39.7347 0.222513ZM39.9494 3.24534L40.9483 3.29264L40.9511 3.23353L40.9469 3.17451L39.9494 3.24534ZM42.117 3.09L41.1196 3.16222L41.1239 3.22155L41.1352 3.27995L42.117 3.09ZM41.8981 0.0671739L41.8286 -0.930406L40.8283 -0.860693L40.9007 0.139391L41.8981 0.0671739ZM41.8646 0.0723507L42.075 2.97343L44.0698 2.82872L43.8593 -0.0723507L41.8646 0.0723507ZM42.075 2.97339C42.1103 3.45996 41.9966 3.7931 41.8502 3.98983C41.7174 4.16832 41.5003 4.31567 41.1197 4.34288L41.2623 6.33779C42.1738 6.27263 42.9458 5.86789 43.4549 5.18362C43.9504 4.51758 44.1313 3.67727 44.0698 2.82876L42.075 2.97339ZM41.1197 4.34288C40.7395 4.37006 40.507 4.25573 40.3517 4.09883C40.1788 3.92426 40.0171 3.60746 39.9782 3.11244L37.9844 3.26909C38.0507 4.11335 38.3478 4.91751 38.9305 5.506C39.5306 6.11215 40.3504 6.40297 41.2623 6.33779L41.1197 4.34288ZM39.9787 3.11831L39.7682 0.22143L37.7735 0.36634L37.9839 3.26322L39.9787 3.11831ZM38.8447 1.29115L39.8086 1.21978L39.6609 -0.774756L38.697 -0.703385L38.8447 1.29115ZM38.7372 0.293348L38.9519 3.31618L40.9469 3.17451L40.7322 0.151679L38.7372 0.293348ZM38.9505 3.19804C38.9365 3.49366 38.9855 3.78887 39.0942 4.06418L40.9544 3.32961C40.9497 3.31783 40.9477 3.30524 40.9483 3.29264L38.9505 3.19804ZM39.0942 4.06418C39.2029 4.33943 39.3688 4.58839 39.5807 4.79471L40.9757 3.36151C40.9663 3.35234 40.9591 3.34144 40.9544 3.32961L39.0942 4.06418ZM39.5807 4.79471C39.7927 5.00103 40.046 5.16003 40.3237 5.26138L41.0093 3.38257C40.9966 3.37791 40.9851 3.37068 40.9757 3.36151L39.5807 4.79471ZM40.3237 5.26138C40.6015 5.36274 40.8975 5.40419 41.1924 5.38306L41.0494 3.38817C41.0358 3.38915 41.0221 3.38722 41.0093 3.38257L40.3237 5.26138ZM41.1924 5.38306C41.4872 5.36193 41.7744 5.27868 42.0349 5.13871L41.0881 3.37697C41.0763 3.38334 41.0631 3.38719 41.0494 3.38817L41.1924 5.38306ZM42.0349 5.13871C42.2954 4.99872 42.5233 4.80514 42.7036 4.57061L41.1181 3.35161C41.1101 3.36193 41.1 3.37061 41.0881 3.37697L42.0349 5.13871ZM42.7036 4.57061C42.8839 4.33607 43.0125 4.0659 43.0807 3.77786L41.1344 3.31734C41.1315 3.3296 41.126 3.3413 41.1181 3.35161L42.7036 4.57061ZM43.0807 3.77786C43.1488 3.48985 43.155 3.19066 43.0988 2.90006L41.1352 3.27995C41.1376 3.29232 41.1373 3.30504 41.1344 3.31734L43.0807 3.77786ZM43.1144 3.01779L42.8955 -0.00504344L40.9007 0.139391L41.1196 3.16222L43.1144 3.01779ZM41.9676 1.06475L42.9315 0.99758L42.7924 -0.99758L41.8286 -0.930406L41.9676 1.06475Z" fill="white" mask="url(#path-25-inside-10_61385_227)"/>
<path d="M49.0102 3.29983L48.6087 3.3757L48.5567 3.27134L48.6387 3.28175C48.7611 3.30585 48.8863 3.3119 49.0102 3.29983Z" fill="#E1E1E6" stroke="white"/>
<mask id="path-28-inside-11_61385_227" fill="white">
<path d="M55.4928 2.7961L55.1519 3.8331L56.8692 4.39988L56.5661 5.31932L54.8489 4.75254L54.508 5.78954L56.5703 6.46967L56.2799 7.38912L53.3042 6.4067L54.8994 1.57437L57.8793 2.55259L57.5763 3.47623L55.4928 2.7961Z"/>
</mask>
<path d="M55.4928 2.7961L55.1519 3.8331L56.8692 4.39988L56.5661 5.31932L54.8489 4.75254L54.508 5.78954L56.5703 6.46967L56.2799 7.38912L53.3042 6.4067L54.8994 1.57437L57.8793 2.55259L57.5763 3.47623L55.4928 2.7961Z" fill="#E1E1E6"/>
<path d="M55.4928 2.7961L55.8032 1.84547L54.8545 1.53578L54.5429 2.48378L55.4928 2.7961ZM55.1519 3.8331L54.2019 3.52078L53.89 4.46965L54.8385 4.78271L55.1519 3.8331ZM56.8692 4.39988L57.8189 4.7129L58.1318 3.76356L57.1826 3.45026L56.8692 4.39988ZM56.5661 5.31932L56.2527 6.26893L57.2027 6.58249L57.5159 5.63235L56.5661 5.31932ZM54.8489 4.75254L55.1623 3.80293L54.2116 3.48914L53.8989 4.44023L54.8489 4.75254ZM54.508 5.78954L53.558 5.47723L53.246 6.42633L54.1948 6.73923L54.508 5.78954ZM56.5703 6.46967L57.5239 6.77087L57.8213 5.82925L56.8835 5.51998L56.5703 6.46967ZM56.2799 7.38912L55.9664 8.33871L56.9284 8.65629L57.2335 7.69031L56.2799 7.38912ZM53.3042 6.4067L52.3546 6.09323L52.0411 7.04279L52.9907 7.35628L53.3042 6.4067ZM54.8994 1.57437L55.2113 0.624255L54.2627 0.312875L53.9498 1.2609L54.8994 1.57437ZM57.8793 2.55259L58.8295 2.86434L59.1412 1.91432L58.1912 1.60248L57.8793 2.55259ZM57.5763 3.47623L57.2659 4.42686L58.2151 4.73674L58.5264 3.78798L57.5763 3.47623ZM54.5429 2.48378L54.2019 3.52078L56.1019 4.14541L56.4428 3.10841L54.5429 2.48378ZM54.8385 4.78271L56.5557 5.34949L57.1826 3.45026L55.4653 2.88348L54.8385 4.78271ZM55.9194 4.08685L55.6164 5.00629L57.5159 5.63235L57.8189 4.7129L55.9194 4.08685ZM56.8795 4.36971L55.1623 3.80293L54.5355 5.70215L56.2527 6.26893L56.8795 4.36971ZM53.8989 4.44023L53.558 5.47723L55.4579 6.10185L55.7989 5.06485L53.8989 4.44023ZM54.1948 6.73923L56.2571 7.41936L56.8835 5.51998L54.8211 4.83985L54.1948 6.73923ZM55.6168 6.16848L55.3263 7.08792L57.2335 7.69031L57.5239 6.77087L55.6168 6.16848ZM56.5934 6.43953L53.6177 5.45711L52.9907 7.35628L55.9664 8.33871L56.5934 6.43953ZM54.2538 6.72017L55.849 1.88784L53.9498 1.2609L52.3546 6.09323L54.2538 6.72017ZM54.5875 2.52449L57.5674 3.50271L58.1912 1.60248L55.2113 0.624255L54.5875 2.52449ZM56.9291 2.24085L56.6261 3.16449L58.5264 3.78798L58.8295 2.86434L56.9291 2.24085ZM57.8866 2.52561L55.8032 1.84547L55.1825 3.74672L57.2659 4.42686L57.8866 2.52561Z" fill="white" mask="url(#path-28-inside-11_61385_227)"/>
<path d="M65.6599 11.8891L65.6379 11.7789L66.3949 11.648L66.3949 11.648L66.399 11.6473C66.6224 11.6068 66.8274 11.5763 67.0145 11.5614L67.0145 11.5614L67.016 11.5612C67.1704 11.5485 67.3256 11.5469 67.4802 11.5566L65.6599 11.8891ZM68.5045 8.90865L68.4474 8.16575L68.5671 8.16083L68.6938 10.0272C68.6586 9.92997 68.6302 9.8304 68.6087 9.72921L68.6088 9.72919L68.6065 9.71936C68.581 9.60992 68.5628 9.49894 68.552 9.38713C68.5502 9.29159 68.5389 9.199 68.5298 9.12758C68.5278 9.11218 68.5259 9.09752 68.5241 9.08344C68.5156 9.01779 68.5087 8.96481 68.5045 8.90947L68.5045 8.90865ZM67.9269 10.6184L68.7789 11.2789L68.7816 11.3189L68.7409 11.3263L67.8914 10.6678L65.3395 8.68957L65.3766 8.64148L67.9269 10.6184Z" fill="#FFCD1E" stroke="white"/>
<path d="M77.7134 24.8603L77.4422 24.569L77.5013 24.4716L77.538 24.5477C77.5815 24.6598 77.6406 24.765 77.7134 24.8603Z" fill="#E1E1E6" stroke="white"/>
<path d="M81.3775 29.7744C81.5598 29.8673 81.7288 29.986 81.879 30.1279C82.1876 30.4194 82.4028 30.7952 82.4977 31.2081C82.5767 31.5614 82.5648 31.9253 82.4676 32.2675C82.4868 32.1962 82.5024 32.1239 82.5143 32.0506C82.5833 31.6258 82.5246 31.1901 82.3459 30.7986L81.9221 30.992L82.3459 30.7986C82.1672 30.407 81.8765 30.0772 81.5105 29.8504C81.467 29.8235 81.4226 29.7981 81.3775 29.7744Z" fill="#E1E1E6" stroke="white"/>
<path d="M83.3215 39.4697C83.3516 39.5392 83.3781 39.6101 83.4007 39.6821C83.3517 39.5467 83.2893 39.4161 83.214 39.2922C83.03 38.9895 82.7751 38.7362 82.4713 38.5541C82.1674 38.3719 81.8238 38.2664 81.47 38.2464C81.1162 38.2265 80.7629 38.2928 80.4405 38.4396C80.1181 38.5865 79.8362 38.8095 79.6194 39.0895C79.4025 39.3695 79.2572 39.698 79.196 40.0468C79.1669 40.2127 79.1573 40.3808 79.167 40.5477C79.16 40.4863 79.1557 40.4244 79.1543 40.3622C79.15 40.0785 79.2017 39.7966 79.3065 39.5327C79.4114 39.2683 79.5676 39.027 79.7661 38.8226C79.9646 38.6183 80.2016 38.4548 80.4636 38.3417C80.7255 38.2286 81.0073 38.1681 81.2928 38.1636C81.5783 38.1591 81.8619 38.2108 82.1273 38.3156C82.3927 38.4204 82.6348 38.5763 82.8397 38.7744C83.0445 38.9724 83.2082 39.2087 83.3215 39.4697Z" fill="#E1E1E6" stroke="white"/>
<mask id="path-34-inside-12_61385_227" fill="white">
<path d="M77.6653 49.0833L77.9052 47.8867L80.4642 46.4467L78.2756 46.0269L78.465 45.0822L83.4694 46.0688L83.28 47.0135L81.2092 46.5936L82.9349 48.76L82.695 49.9523L80.7252 47.3577L77.6653 49.0833Z"/>
</mask>
<path d="M77.6653 49.0833L77.9052 47.8867L80.4642 46.4467L78.2756 46.0269L78.465 45.0822L83.4694 46.0688L83.28 47.0135L81.2092 46.5936L82.9349 48.76L82.695 49.9523L80.7252 47.3577L77.6653 49.0833Z" fill="#E1E1E6"/>
<path d="M77.6653 49.0833L76.6848 48.8867L76.2558 51.0261L78.1565 49.9543L77.6653 49.0833ZM77.9052 47.8867L77.4148 47.0153L77.0149 47.2403L76.9247 47.6901L77.9052 47.8867ZM80.4642 46.4467L80.9546 47.3182L83.3344 45.979L80.6526 45.4646L80.4642 46.4467ZM78.2756 46.0269L77.2951 45.8303L77.0969 46.819L78.0872 47.009L78.2756 46.0269ZM78.465 45.0822L78.6584 44.1011L77.6804 43.9083L77.4845 44.8856L78.465 45.0822ZM83.4694 46.0688L84.4499 46.2654L84.6471 45.2818L83.6628 45.0877L83.4694 46.0688ZM83.28 47.0135L83.0813 47.9935L84.0635 48.1927L84.2605 47.21L83.28 47.0135ZM81.2092 46.5936L81.4079 45.6136L78.7152 45.0676L80.427 47.2167L81.2092 46.5936ZM82.9349 48.76L83.9152 48.9573L84.007 48.501L83.717 48.1369L82.9349 48.76ZM82.695 49.9523L81.8985 50.557L83.2382 52.3217L83.6753 50.1496L82.695 49.9523ZM80.7252 47.3577L81.5216 46.7531L80.994 46.0581L80.234 46.4867L80.7252 47.3577ZM78.6458 49.2799L78.8857 48.0833L76.9247 47.6901L76.6848 48.8867L78.6458 49.2799ZM78.3956 48.7582L80.9546 47.3182L79.9738 45.5752L77.4148 47.0153L78.3956 48.7582ZM80.6526 45.4646L78.464 45.0448L78.0872 47.009L80.2758 47.4288L80.6526 45.4646ZM79.2561 46.2234L79.4455 45.2788L77.4845 44.8856L77.2951 45.8303L79.2561 46.2234ZM78.2716 46.0633L83.276 47.05L83.6628 45.0877L78.6584 44.1011L78.2716 46.0633ZM82.4889 45.8723L82.2995 46.8169L84.2605 47.21L84.4499 46.2654L82.4889 45.8723ZM83.4787 46.0334L81.4079 45.6136L81.0105 47.5737L83.0813 47.9935L83.4787 46.0334ZM80.427 47.2167L82.1527 49.3831L83.717 48.1369L81.9914 45.9706L80.427 47.2167ZM81.9545 48.5627L81.7146 49.7551L83.6753 50.1496L83.9152 48.9573L81.9545 48.5627ZM83.4914 49.3477L81.5216 46.7531L79.9287 47.9624L81.8985 50.557L83.4914 49.3477ZM80.234 46.4867L77.1741 48.2122L78.1565 49.9543L81.2164 48.2288L80.234 46.4867Z" fill="white" mask="url(#path-34-inside-12_61385_227)"/>
<mask id="path-36-inside-13_61385_227" fill="white">
<path d="M80.2115 54.3354L79.1972 53.9156L78.5111 55.595L77.6146 55.2297L78.2965 53.5504L77.2863 53.1305L76.4445 55.1331L75.5438 54.7679L76.7265 51.871L81.4532 53.7939L80.2662 56.6907L79.3697 56.3255L80.2115 54.3354Z"/>
</mask>
<path d="M80.2115 54.3354L79.1972 53.9156L78.5111 55.595L77.6146 55.2297L78.2965 53.5504L77.2863 53.1305L76.4445 55.1331L75.5438 54.7679L76.7265 51.871L81.4532 53.7939L80.2662 56.6907L79.3697 56.3255L80.2115 54.3354Z" fill="#E1E1E6"/>
<path d="M80.2115 54.3354L81.1325 54.725L81.5251 53.7969L80.594 53.4115L80.2115 54.3354ZM79.1972 53.9156L79.5796 52.9916L78.6514 52.6074L78.2714 53.5374L79.1972 53.9156ZM78.5111 55.595L78.1338 56.521L79.059 56.898L79.4369 55.9731L78.5111 55.595ZM77.6146 55.2297L76.6881 54.8535L76.3123 55.7789L77.2373 56.1558L77.6146 55.2297ZM78.2965 53.5504L79.223 53.9265L79.5961 53.0076L78.6803 52.6269L78.2965 53.5504ZM77.2863 53.1305L77.6701 52.2071L76.7504 51.8248L76.3645 52.743L77.2863 53.1305ZM76.4445 55.1331L76.0687 56.0598L76.9838 56.4309L77.3664 55.5206L76.4445 55.1331ZM75.5438 54.7679L74.618 54.3899L74.2391 55.3179L75.168 55.6946L75.5438 54.7679ZM76.7265 51.871L77.1034 50.9447L76.1782 50.5684L75.8007 51.493L76.7265 51.871ZM81.4532 53.7939L82.3785 54.173L82.7586 53.2453L81.83 52.8676L81.4532 53.7939ZM80.2662 56.6907L79.8889 57.6168L80.8132 57.9934L81.1916 57.0699L80.2662 56.6907ZM79.3697 56.3255L78.4487 55.9359L78.054 56.8692L78.9924 57.2516L79.3697 56.3255ZM80.594 53.4115L79.5796 52.9916L78.8147 54.8396L79.8291 55.2594L80.594 53.4115ZM78.2714 53.5374L77.5854 55.2168L79.4369 55.9731L80.1229 54.2938L78.2714 53.5374ZM78.8884 54.6689L77.9919 54.3036L77.2373 56.1558L78.1338 56.521L78.8884 54.6689ZM78.5412 55.6059L79.223 53.9265L77.3699 53.1742L76.6881 54.8535L78.5412 55.6059ZM78.6803 52.6269L77.6701 52.2071L76.9025 54.0539L77.9127 54.4738L78.6803 52.6269ZM76.3645 52.743L75.5227 54.7456L77.3664 55.5206L78.2082 53.518L76.3645 52.743ZM76.8203 54.2064L75.9196 53.8412L75.168 55.6946L76.0687 56.0598L76.8203 54.2064ZM76.4696 55.1459L77.6523 52.249L75.8007 51.493L74.618 54.3899L76.4696 55.1459ZM76.3497 52.7973L81.0763 54.7201L81.83 52.8676L77.1034 50.9447L76.3497 52.7973ZM80.5278 53.4147L79.3409 56.3116L81.1916 57.0699L82.3785 54.173L80.5278 53.4147ZM80.6435 55.7646L79.747 55.3994L78.9924 57.2516L79.8889 57.6168L80.6435 55.7646ZM80.2907 56.7151L81.1325 54.725L79.2905 53.9459L78.4487 55.9359L80.2907 56.7151Z" fill="white" mask="url(#path-36-inside-13_61385_227)"/>
<mask id="path-38-inside-14_61385_227" fill="white">
<path d="M76.4826 63.2696L75.6829 62.7322L76.4027 61.6196L72.9303 59.3861L73.4522 58.58L76.9246 60.8135L77.6485 59.701L78.465 60.2257L76.4826 63.2696Z"/>
</mask>
<path d="M76.4826 63.2696L75.6829 62.7322L76.4027 61.6196L72.9303 59.3861L73.4522 58.58L76.9246 60.8135L77.6485 59.701L78.465 60.2257L76.4826 63.2696Z" fill="#E1E1E6"/>
<path d="M76.4826 63.2696L75.9249 64.0996L76.7669 64.6654L77.3206 63.8153L76.4826 63.2696ZM75.6829 62.7322L74.8433 62.189L74.3096 63.0141L75.1252 63.5622L75.6829 62.7322ZM76.4027 61.6196L77.2423 62.1628L77.7869 61.321L76.9436 60.7786L76.4027 61.6196ZM72.9303 59.3861L72.0909 58.8426L71.5458 59.6845L72.3893 60.2271L72.9303 59.3861ZM73.4522 58.58L73.9932 57.739L73.1546 57.1996L72.6128 58.0365L73.4522 58.58ZM76.9246 60.8135L76.3836 61.6546L77.2202 62.1927L77.7627 61.3589L76.9246 60.8135ZM77.6485 59.701L78.1892 58.8597L77.3527 58.3221L76.8103 59.1556L77.6485 59.701ZM78.465 60.2257L79.303 60.7715L79.852 59.9285L79.0057 59.3845L78.465 60.2257ZM77.0404 62.4396L76.2407 61.9022L75.1252 63.5622L75.9249 64.0996L77.0404 62.4396ZM76.5226 63.2753L77.2423 62.1628L75.563 61.0765L74.8433 62.189L76.5226 63.2753ZM76.9436 60.7786L73.4713 58.545L72.3893 60.2271L75.8617 62.4606L76.9436 60.7786ZM73.7697 59.9296L74.2916 59.1235L72.6128 58.0365L72.0909 58.8426L73.7697 59.9296ZM72.9112 59.421L76.3836 61.6546L77.4655 59.9725L73.9932 57.739L72.9112 59.421ZM77.7627 61.3589L78.4867 60.2463L76.8103 59.1556L76.0864 60.2681L77.7627 61.3589ZM77.1078 60.5422L77.9244 61.067L79.0057 59.3845L78.1892 58.8597L77.1078 60.5422ZM77.6271 59.68L75.6447 62.7238L77.3206 63.8153L79.303 60.7715L77.6271 59.68Z" fill="white" mask="url(#path-38-inside-14_61385_227)"/>
<path d="M69.9199 66.6394C70.2088 66.5582 70.4989 66.3734 70.7764 66.1603C70.9915 65.9957 71.1813 65.8721 71.3484 65.7813C71.1852 65.8793 71.0187 66.0021 70.8544 66.1233L70.8427 66.1319C70.4067 66.4459 70.0664 66.6394 69.7765 66.6967C69.6148 66.7287 69.4564 66.7216 69.2831 66.629C69.4911 66.7048 69.713 66.6976 69.9199 66.6394ZM72.1774 65.594C72.0647 65.5675 71.9568 65.5664 71.8564 65.5808C71.8963 65.5723 71.9339 65.5666 71.9693 65.5631C72.1987 65.5407 72.3815 65.6103 72.5714 65.7925C72.5886 65.809 72.6054 65.8267 72.6216 65.8456C72.507 65.7364 72.3615 65.6374 72.1774 65.594Z" fill="#E1E1E6" stroke="white"/>
<mask id="path-41-inside-15_61385_227" fill="white">
<path d="M66.8022 71.6578L66.1709 70.7678L64.6935 71.809L64.1338 71.0197L65.6111 69.9785L64.9798 69.0884L63.2036 70.3479L62.6438 69.5544L65.207 67.7491L68.1533 71.9013L65.59 73.7108L65.0303 72.9173L66.8022 71.6578Z"/>
</mask>
<path d="M66.8022 71.6578L66.1709 70.7678L64.6935 71.809L64.1338 71.0197L65.6111 69.9785L64.9798 69.0884L63.2036 70.3479L62.6438 69.5544L65.207 67.7491L68.1533 71.9013L65.59 73.7108L65.0303 72.9173L66.8022 71.6578Z" fill="#E1E1E6"/>
<path d="M66.8022 71.6578L67.3816 72.4729L68.1958 71.8941L67.6179 71.0793L66.8022 71.6578ZM66.1709 70.7678L66.9865 70.1892L66.4097 69.376L65.5948 69.9504L66.1709 70.7678ZM64.6935 71.809L63.8779 72.3875L64.4546 73.2007L65.2696 72.6264L64.6935 71.809ZM64.1338 71.0197L63.5577 70.2023L62.7379 70.7801L63.3181 71.5982L64.1338 71.0197ZM65.6111 69.9785L66.1872 70.7959L67.0071 70.218L66.4267 69.3999L65.6111 69.9785ZM64.9798 69.0884L65.7954 68.5099L65.2169 67.6943L64.4013 68.2727L64.9798 69.0884ZM63.2036 70.3479L62.3865 70.9244L62.9643 71.7435L63.782 71.1637L63.2036 70.3479ZM62.6438 69.5544L62.068 68.7369L61.2498 69.3131L61.8267 70.1309L62.6438 69.5544ZM65.207 67.7491L66.0226 67.1705L65.4459 66.3578L64.6312 66.9316L65.207 67.7491ZM68.1533 71.9013L68.73 72.7183L69.5489 72.1402L68.9688 71.3227L68.1533 71.9013ZM65.59 73.7108L64.7729 74.2873L65.3496 75.1047L66.1668 74.5278L65.59 73.7108ZM65.0303 72.9173L64.4509 72.1023L63.6387 72.6796L64.2131 73.4938L65.0303 72.9173ZM67.6179 71.0793L66.9865 70.1892L65.3552 71.3463L65.9866 72.2364L67.6179 71.0793ZM65.5948 69.9504L64.1175 70.9916L65.2696 72.6264L66.747 71.5852L65.5948 69.9504ZM65.5092 71.2305L64.9494 70.4412L63.3181 71.5982L63.8779 72.3875L65.5092 71.2305ZM64.7098 71.8371L66.1872 70.7959L65.035 69.1611L63.5577 70.2023L64.7098 71.8371ZM66.4267 69.3999L65.7954 68.5099L64.1641 69.667L64.7955 70.557L66.4267 69.3999ZM64.4013 68.2727L62.6251 69.5322L63.782 71.1637L65.5582 69.9042L64.4013 68.2727ZM64.0207 69.7715L63.4609 68.978L61.8267 70.1309L62.3865 70.9244L64.0207 69.7715ZM63.2196 70.372L65.7829 68.5667L64.6312 66.9316L62.068 68.7369L63.2196 70.372ZM64.3915 68.3278L67.3377 72.48L68.9688 71.3227L66.0226 67.1705L64.3915 68.3278ZM67.5766 71.0844L65.0133 72.8939L66.1668 74.5278L68.73 72.7183L67.5766 71.0844ZM66.4072 73.1344L65.8474 72.3409L64.2131 73.4938L64.7729 74.2873L66.4072 73.1344ZM65.6096 73.7324L67.3816 72.4729L66.2229 70.8428L64.4509 72.1023L65.6096 73.7324Z" fill="white" mask="url(#path-41-inside-15_61385_227)"/>
<mask id="path-43-inside-16_61385_227" fill="white">
<path d="M57.353 73.3414L59.3102 72.4723L59.2597 71.4353L60.253 71.0155L60.4087 76.5196L59.609 76.8722L55.6232 73.0643L56.6123 72.6445L57.353 73.3414ZM58.0854 74.0761L59.4659 75.4532L59.3649 73.5093L58.0854 74.0761Z"/>
</mask>
<path d="M57.353 73.3414L59.3102 72.4723L59.2597 71.4353L60.253 71.0155L60.4087 76.5196L59.609 76.8722L55.6232 73.0643L56.6123 72.6445L57.353 73.3414ZM58.0854 74.0761L59.4659 75.4532L59.3649 73.5093L58.0854 74.0761Z" fill="#E1E1E6"/>
<path d="M57.353 73.3414L56.6678 74.0697L57.1517 74.525L57.7589 74.2554L57.353 73.3414ZM59.3102 72.4723L59.716 73.3863L60.3424 73.1082L60.309 72.4237L59.3102 72.4723ZM59.2597 71.4353L58.8704 70.5142L58.2269 70.7862L58.2609 71.484L59.2597 71.4353ZM60.253 71.0155L61.2526 70.9872L61.2112 69.5248L59.8637 70.0944L60.253 71.0155ZM60.4087 76.5196L60.8122 77.4346L61.4273 77.1633L61.4083 76.4913L60.4087 76.5196ZM59.609 76.8722L58.9182 77.5953L59.4013 78.0568L60.0125 77.7872L59.609 76.8722ZM55.6232 73.0643L55.2324 72.1438L53.8335 72.7376L54.9324 73.7874L55.6232 73.0643ZM56.6123 72.6445L57.2975 71.9161L56.8222 71.469L56.2215 71.724L56.6123 72.6445ZM58.0854 74.0761L57.6804 73.1618L56.3456 73.7531L57.3792 74.7841L58.0854 74.0761ZM59.4659 75.4532L58.7597 76.1612L60.5994 77.9963L60.4646 75.4013L59.4659 75.4532ZM59.3649 73.5093L60.3635 73.4574L60.2881 72.0066L58.9599 72.595L59.3649 73.5093ZM57.7589 74.2554L59.716 73.3863L58.9044 71.5584L56.9472 72.4275L57.7589 74.2554ZM60.309 72.4237L60.2585 71.3867L58.2609 71.484L58.3114 72.521L60.309 72.4237ZM59.649 72.3564L60.6423 71.9366L59.8637 70.0944L58.8704 70.5142L59.649 72.3564ZM59.2534 71.0438L59.4091 76.5479L61.4083 76.4913L61.2526 70.9872L59.2534 71.0438ZM60.0052 75.6046L59.2055 75.9573L60.0125 77.7872L60.8122 77.4346L60.0052 75.6046ZM60.2998 76.1492L56.314 72.3413L54.9324 73.7874L58.9182 77.5953L60.2998 76.1492ZM56.0139 73.9848L57.003 73.565L56.2215 71.724L55.2324 72.1438L56.0139 73.9848ZM55.927 73.3728L56.6678 74.0697L58.0383 72.6131L57.2975 71.9161L55.927 73.3728ZM57.3792 74.7841L58.7597 76.1612L60.1721 74.7452L58.7916 73.3681L57.3792 74.7841ZM60.4646 75.4013L60.3635 73.4574L58.3662 73.5612L58.4673 75.5051L60.4646 75.4013ZM58.9599 72.595L57.6804 73.1618L58.4904 74.9904L59.7699 74.4236L58.9599 72.595Z" fill="white" mask="url(#path-43-inside-16_61385_227)"/>
<mask id="path-45-inside-17_61385_227" fill="white">
<path d="M51.2964 79.4334L51.0691 78.4888L52.3612 78.1823L51.4058 74.1728L52.3444 73.9503L53.2998 77.9598L54.592 77.6533L54.8192 78.5937L51.2964 79.4334Z"/>
</mask>
<path d="M51.2964 79.4334L51.0691 78.4888L52.3612 78.1823L51.4058 74.1728L52.3444 73.9503L53.2998 77.9598L54.592 77.6533L54.8192 78.5937L51.2964 79.4334Z" fill="#E1E1E6"/>
<path d="M51.2964 79.4334L50.3241 79.6673L50.5576 80.6375L51.5282 80.4061L51.2964 79.4334ZM51.0691 78.4888L50.8383 77.5158L49.8621 77.7473L50.0968 78.7227L51.0691 78.4888ZM52.3612 78.1823L52.592 79.1553L53.566 78.9243L53.334 77.9505L52.3612 78.1823ZM51.4058 74.1728L51.1751 73.1998L50.201 73.4307L50.4331 74.4046L51.4058 74.1728ZM52.3444 73.9503L53.3172 73.7185L53.0856 72.7469L52.1137 72.9773L52.3444 73.9503ZM53.2998 77.9598L52.3271 78.1916L52.5586 79.1633L53.5306 78.9328L53.2998 77.9598ZM54.592 77.6533L55.564 77.4184L55.3301 76.4505L54.3612 76.6803L54.592 77.6533ZM54.8192 78.5937L55.0511 79.5665L56.0269 79.3339L55.7913 78.3588L54.8192 78.5937ZM52.2686 79.1995L52.0413 78.2548L50.0968 78.7227L50.3241 79.6673L52.2686 79.1995ZM51.2999 79.4618L52.592 79.1553L52.1305 77.2093L50.8383 77.5158L51.2999 79.4618ZM53.334 77.9505L52.3786 73.941L50.4331 74.4046L51.3885 78.4141L53.334 77.9505ZM51.6365 75.1459L52.5751 74.9233L52.1137 72.9773L51.1751 73.1998L51.6365 75.1459ZM51.3716 74.1821L52.3271 78.1916L54.2726 77.728L53.3172 73.7185L51.3716 74.1821ZM53.5306 78.9328L54.8228 78.6263L54.3612 76.6803L53.069 76.9868L53.5306 78.9328ZM53.6199 77.8882L53.8472 78.8286L55.7913 78.3588L55.564 77.4184L53.6199 77.8882ZM54.5874 77.621L51.0645 78.4606L51.5282 80.4061L55.0511 79.5665L54.5874 77.621Z" fill="white" mask="url(#path-45-inside-17_61385_227)"/>
</g>
<defs>
<filter id="filter0_d_61385_227" x="0" y="0" width="88" height="88.0001" filterUnits="userSpaceOnUse" color-interpolation-filters="sRGB">
<feFlood flood-opacity="0" result="BackgroundImageFix"/>
<feColorMatrix in="SourceAlpha" type="matrix" values="0 0 0 0 0 0 0 0 0 0 0 0 0 0 0 0 0 0 127 0" result="hardAlpha"/>
<feOffset dy="4"/>
<feGaussianBlur stdDeviation="2"/>
<feComposite in2="hardAlpha" operator="out"/>
<feColorMatrix type="matrix" values="0 0 0 0 0 0 0 0 0 0 0 0 0 0 0 0 0 0 0.25 0"/>
<feBlend mode="normal" in2="BackgroundImageFix" result="effect1_dropShadow_61385_227"/>
<feBlend mode="normal" in="SourceGraphic" in2="effect1_dropShadow_61385_227" result="shape"/>
</filter>
</defs>
</svg>
